# xmcd
#
# Track frame offsets:
# 150
# 19995
# 44786
# 64962
# 81714
# 103315
# 131453
# 146074
# 161085
# 179666
# 201674
# 218984
# 231226
# 251611
#
# Disc length: 3744 seconds
#
# Revision: 0
# Processed by: cddbd v1.5.2PL0 Copyright (c) Steve Scherf et al.
# Submitted via: Audion 3.0.2 (http://www.panic.com/audion/)
#
DISCID=ec0e9e0e
DTITLE=Jan delay - mm
DYEAR=1900
DGENRE=
TTITLE0=y
TTITLE1=y
TTITLE2=y
TTITLE3=y
TTITLE4=y
TTITLE5=y
TTITLE6=y
TTITLE7=y
TTITLE8=y
TTITLE9=y
TTITLE10=y
TTITLE11=y
TTITLE12=y
TTITLE13=y
EXTD=
EXTT0=
EXTT1=
EXTT2=
EXTT3=
EXTT4=
EXTT5=
EXTT6=
EXTT7=
EXTT8=
EXTT9=
EXTT10=
EXTT11=
EXTT12=
EXTT13=
PLAYORDER=
